<svg xmlns="http://www.w3.org/2000/svg" viewBox="0 0 446 758.17"><defs><style>.cls-1{fill:#870024;}.cls-2{fill:#f17d94;}.cls-3{fill:#ffe442;}.cls-4{fill:#e41345;}.cls-5{fill:#0f0e0e;stroke:#000;stroke-miterlimit:10;}.cls-6{fill:#fff2f4;}</style></defs><title>Asset 1</title><g id="Layer_2" data-name="Layer 2"><g id="Layer_5" data-name="Layer 5"><polygon class="cls-1" points="78.69 375.73 0 562 69 720 112.25 591.04 160 413 78.69 375.73"/><polygon class="cls-1" points="367.31 375.73 446 562 377 720 333.75 591.04 286 413 367.31 375.73"/><path class="cls-2" d="M308.73,607.5c-7,60.13-58.86,123-58.86,123l-12.49-27.79-23,55.41-29.45-82.5-14.54,26.26c-24.52-29.57-34.69-96.4-34.69-96.4Z"/><path class="cls-3" d="M297.73,550.92C292,611,247.86,673.81,247.86,673.81L237.14,646l-19.5,55.35-25.32-82.57L180,645c-21-29.63-29.83-96.49-29.83-96.49Z"/><path class="cls-4" d="M334.93,587.64q-4.76,13.82-10.31,27.8c-.2.52-.41,1-.62,1.56H122c-.15-.39-.31-.77-.46-1.16q-5.57-14-10.32-27.75C144.12,600.77,182.08,608,222.5,608,263.39,608,301.77,600.6,334.93,587.64Z"/><path class="cls-4" d="M324,617H122C-17,270,223,0,223,0S463,270,324,617Z"/><path class="cls-4" d="M366.94,376.23C324.44,387.52,274.9,394,222,394c-52.08,0-100.91-6.28-143-17.25q.46-13,1.48-25.61C122.24,361.87,170.53,368,222,368c52.28,0,101.28-6.33,143.44-17.38Q366.46,363.27,366.94,376.23Z"/><path class="cls-4" d="M367.24,406.65,245.35,494.23l97.18,69.82q-3.91,13.08-8.55,26.33L222.76,510.46,111.92,590.09q-4.64-13.25-8.54-26.33l96.77-69.53L78.77,407q-.28-16.33.34-32.22L222.76,478,366.87,374.45Q367.5,390.32,367.24,406.65Z"/><circle class="cls-5" cx="224" cy="243" r="51"/><path class="cls-6" d="M111.92,590.09l110.84-79.63L334,590.38q4.63-13.25,8.55-26.33l-97.18-69.82,121.89-87.58q.27-16.33-.37-32.2L222.76,478,79.11,374.79q-.6,15.87-.34,32.22l121.38,87.22-96.77,69.53Z"/><path class="cls-6" d="M223.5,177A65.5,65.5,0,1,0,289,242.5,65.51,65.51,0,0,0,223.5,177Zm0,24A41.5,41.5,0,1,1,182,242.5,41.5,41.5,0,0,1,223.5,201Z"/><path class="cls-6" d="M334.93,588.64q-4.76,13.82-10.31,27.8c-1.54.53-3.1,1-4.66,1.56a315.73,315.73,0,0,1-97.46,15A315.73,315.73,0,0,1,125,618l-3.5-1.16q-5.57-14-10.32-27.75C144.12,601.77,182.08,609,222.5,609,263.39,609,301.77,601.6,334.93,588.64Z"/><path class="cls-6" d="M366.94,376.23C324.44,387.52,274.9,394,222,394c-52.08,0-100.91-6.28-143-17.25q.46-13,1.48-25.61C122.24,361.87,170.53,368,222,368c52.28,0,101.28-6.33,143.44-17.38Q366.46,363.27,366.94,376.23Z"/></g></g></svg>