<?xml version="1.0" encoding="utf-8"?>
<!-- Generator: Adobe Illustrator 23.0.1, SVG Export Plug-In . SVG Version: 6.00 Build 0)  -->
<svg version="1.1" id="Layer_1" xmlns="http://www.w3.org/2000/svg" xmlns:xlink="http://www.w3.org/1999/xlink" x="0px" y="0px"
	 viewBox="0 0 302.2 214" style="enable-background:new 0 0 302.2 214;" xml:space="preserve">
<style type="text/css">
	.st0{fill:#F17D94;}
	.st1{fill:#E41345;}
	.st2{fill:#870024;}
	.st3{fill:#FFF2F4;}
</style>
<title>Asset 5happyhog</title>
<g>
	<g id="Layer_6">
		<path class="st0" d="M189.1,61.6c0,0,4-61.3,68.2-42.5c24.1,7.1,44.7-4.9,44.7-4.9s6,73.6-41.1,80
			C209.2,101.1,200.1,81.6,189.1,61.6z"/>
		<path class="st1" d="M209.7,67.8c-0.4-0.6-0.5-1.4-0.4-2.1c1-5.9,9.8-33.8,47.4-23.2c9.1,2.6,21.5-3.5,28.6-8.1
			c0.2,9.5,0.5,42.1-29.1,46.1C220.6,85.2,216.9,79.4,209.7,67.8z"/>
		<path class="st2" d="M208,59.4l2.1,1.1c0.4-0.7,8.8-12.7,11.6-12.9c3.8-0.3,12.7,4,16,10.7c1.2,2.5,3,0.7,2-1.3
			c-2.5-4.8-7-10.4-14.9-11.6c4.4-2.2,10.8-5.3,15.2-4.5c2.3,0.4,5.6,4.5,8.2,11.1c0.3,0.7,1.4,4.2,2.4,2.4
			c1.2-2.2-3.4-11.7-7.2-13.5c3.9,0.3,9.4,2.6,15.2,3c3.5,0.3,6.8,0.6,9.5-0.7c2-1,1.6-2-1-2c-2.6,0.1-5.3-0.1-7.9-0.5
			c-5.8-0.9-12.3-2.8-18.2-2.7l0,0h-0.5c-6.7,0-13.3,2-18.9,5.8C215.9,47.7,211.2,53.1,208,59.4z"/>
		<path class="st0" d="M113.1,61.6c0,0-4-61.3-68.2-42.5c-24.1,7.1-44.7-4.9-44.7-4.9s-6,73.6,41.1,80
			C93.1,101.1,102.1,81.6,113.1,61.6z"/>
		<path class="st1" d="M92.6,67.8c0.4-0.6,0.6-1.4,0.4-2.1c-1-5.9-9.8-33.8-47.4-23.2C36.5,45.1,24.1,39,17,34.4
			c-0.2,9.5-0.5,42.1,29.1,46.1C81.6,85.2,85.3,79.4,92.6,67.8z"/>
		<path class="st2" d="M94.3,59.4l-2.2,1.1c-0.3-0.7-8.8-12.7-11.6-12.9c-3.8-0.3-12.7,4-16,10.7c-1.2,2.5-3,0.7-2-1.3
			c2.5-4.8,7-10.4,14.9-11.6c-4.4-2.2-10.8-5.3-15.2-4.5c-2.3,0.4-5.6,4.5-8.2,11.1c-0.3,0.7-1.5,4.2-2.5,2.4
			c-1.2-2.2,3.4-11.7,7.3-13.5c-3.9,0.3-9.4,2.6-15.2,3c-3.5,0.3-6.8,0.6-9.5-0.7c-2-1-1.6-2,1-2c2.6,0.1,5.3-0.1,7.9-0.5
			c5.8-0.9,12.3-2.8,18.2-2.7l0,0h0.5c6.7,0,13.3,2,18.9,5.8C86.4,47.7,91.1,53.2,94.3,59.4z"/>
		<path class="st0" d="M240.1,102.5c0,44.8-39.8,81.2-89,81.5c-49.2-0.2-89-36.6-89-81.5c0-26.6,15.4-44.3,35.6-61.1
			C115.1,27,131.1,21.1,151.1,21c20,0.1,36,6,53.4,20.4C224.7,58.2,240.1,75.9,240.1,102.5z"/>
		<path d="M190.3,106.1c1.6,1.5,4-1.9,7.7-3.8s7.7-0.7,4.5-5.2c-2.2-3.1-7.1-4.7-10.9-2.9S187,103,190.3,106.1z"/>
		<path class="st0" d="M292.2,153.5c0,32.9-26.6,59.5-59.5,59.5c-8.8,0-17.6-3.2-25.8-4.4c-10.8-1.6-20.2-3.3-34.4,1.3
			c-6.4,2.1-13.1,4-21.4,4.1c-8.3-0.1-15-2-21.4-4.1c-14.1-4.6-23.6-2.9-34.4-1.3c-8.2,1.2-17,4.4-25.8,4.4
			C36.7,213,10,186.4,10,153.5C10,120.6,36.7,94,69.5,94c25.2,0,47.9,13.9,56.6,36c7.4-5.4,15.2-6.9,25-7c9.8,0.1,17.6,1.6,25,7
			c8.7-22.1,31.4-36,56.6-36C265.6,94,292.2,120.6,292.2,153.5z"/>
		<path class="st2" d="M151.1,187.1c21.9,0,37.7-5.4,46.9-16.2c5.3-6.2,8.8-13.3,9.1-18.9c0.1-1.9-1.3-3.7-1.5-5.2
			c0-0.3,6.6-0.4,6.5-0.8c-0.6-3.6-5.2-2.8,2-6c0,0,7.1-4.1,3-4c-10.2,0.3-14,7-13.5,11.2c0.6,5.4-1.5,14.2-7.9,21.8
			c-8.6,10-23.6,15.1-44.6,15.1V187.1z"/>
		<path class="st3" d="M205.1,144.5c0,5.5,3,10.5,12.5,10.5c2.5,0,9.3-0.2,13.5-3c6-4,11-11,13.7-17c1.9-4.4,2.6-9.2,2.2-14
			c-0.3-2.5-1.9-5-4.9-5c-3.3,0-5,3-6,6s-6,11-18,11c-2,0-5,0-7,1C207.1,136,205.1,139,205.1,144.5z"/>
		<path d="M112,106.1c-1.6,1.5-4-1.9-7.7-3.8s-7.7-0.7-4.5-5.2c2.2-3.1,7.1-4.7,10.9-2.9S115.2,103,112,106.1z"/>
		<path class="st2" d="M151.1,187.1c-21.9,0-37.7-5.4-46.9-16.2c-5.3-6.2-8.8-13.3-9.1-18.9c-0.1-1.9,1.3-3.7,1.5-5.2
			c0-0.3-6.6-0.4-6.5-0.8c0.7-3.6,5.2-2.8-2-6c0,0-7.1-4.1-3-4c10.2,0.3,14,7,13.5,11.2c-0.7,5.4,1.5,14.2,7.9,21.8
			c8.6,10,23.6,15.1,44.6,15.1V187.1z"/>
		<path class="st3" d="M97.1,144.5c0,5.5-3,10.5-12.5,10.5c-2.5,0-9.3-0.2-13.5-3c-6-4-11-11-13.7-17c-1.9-4.4-2.6-9.2-2.2-14
			c0.3-2.5,1.9-5,4.9-5c3.3,0,5,3,6,6s6,11,18,11c2,0,5,0,7,1C95.1,136,97.1,139,97.1,144.5z"/>
		<path class="st0" d="M130.1,25c6-4,7-16,7-16s1.8,7.8,6,7c10-2,10-16,10-16s3.2,26.1,9,16c4-7,9-7,9-7s-7,15,8,21
			c5.8,2.3-22,12-22,12l-22-17.7"/>
		<path class="st1" d="M189.4,168.7c-4.9,19.1-17.1,28.4-38.3,28.4s-33.4-9.3-38.3-28.4c-5.5-21.4,21.9-42.7,38.3-42.7
			C167.5,126,194.9,147.3,189.4,168.7z"/>
		<path class="st2" d="M162.1,161c0,4,4,8,8,8c5,0,8-3,8-7c0-6-5.7-10-9-10C164.1,152,162.1,157,162.1,161z"/>
		<path class="st2" d="M140.1,161c0,4-4,8-8,8c-5,0-8-3-8-7c0-6,5.7-10,9-10C138.1,152,140.1,157,140.1,161z"/>
	</g>
</g>
</svg>
