<svg xmlns="http://www.w3.org/2000/svg" viewBox="0 0 140 76.76"><defs><style>.cls-1{fill:#870024;}.cls-2{fill:#f17d94;}.cls-3{fill:#e41345;}</style></defs><title>Asset 2</title><g id="Layer_2" data-name="Layer 2"><g id="Layer_5" data-name="Layer 5"><path class="cls-1" d="M137.06,23.65a17.86,17.86,0,0,0-9.16-9.85Q121.69,11,110.38,11q-10.95,0-27.14.92V37.73H67.36V11.92H48c-6,0-16.61-.79-32.49-.79A15.56,15.56,0,0,0,4.35,15.25,14.09,14.09,0,0,0,0,26V76.76H20.52V51.92H33.88v-14H20.52V30.23a3.09,3.09,0,0,1,1.09-2.46,4.37,4.37,0,0,1,3-.94H47.38V75.4h20V51.92H83.24V75.4q13.33.91,27.14.92,11.31,0,17.52-2.81a17.81,17.81,0,0,0,9.16-9.84q2.94-7,2.94-20T137.06,23.65ZM117.23,58.24c-1.13,2.42-3.42,3.63-6.85,3.63l-7-.09h-.13V25.44h7.18c3.43,0,5.72,1.21,6.85,3.64s1.7,7.28,1.7,14.58S118.36,55.82,117.23,58.24Z"/><path class="cls-2" d="M137.06,12.65A17.86,17.86,0,0,0,127.9,2.8Q121.69,0,110.38,0,99.43,0,83.24.92V26.73H67.36V.92H48C42,.92,31.39.13,15.51.13A15.56,15.56,0,0,0,4.35,4.25,14.09,14.09,0,0,0,0,15V65.76H20.52V40.92H33.88v-14H20.52V19.23a3.09,3.09,0,0,1,1.09-2.46,4.37,4.37,0,0,1,3-.94H47.38V64.4h20V40.92H83.24V64.4q13.33.91,27.14.92,11.31,0,17.52-2.81a17.81,17.81,0,0,0,9.16-9.84q2.94-7,2.94-20T137.06,12.65ZM117.23,47.24c-1.13,2.42-3.42,3.63-6.85,3.63l-7-.09h-.13V14.44h7.18c3.43,0,5.72,1.21,6.85,3.64s1.7,7.28,1.7,14.58S118.36,44.82,117.23,47.24Z"/><path class="cls-3" d="M137.06,14.65A17.86,17.86,0,0,0,127.9,4.8Q121.69,2,110.38,2q-10.95,0-27.14.92V28.73H67.36V2.92H48c-6,0-16.61-.79-32.49-.79A15.56,15.56,0,0,0,4.35,6.25,14.09,14.09,0,0,0,0,17V67.76H20.52V42.92H33.88v-14H20.52V21.23a3.09,3.09,0,0,1,1.09-2.46,4.37,4.37,0,0,1,3-.94H47.38V66.4h20V42.92H83.24V66.4q13.33.91,27.14.92,11.31,0,17.52-2.81a17.81,17.81,0,0,0,9.16-9.84q2.94-7,2.94-20T137.06,14.65ZM117.23,49.24c-1.13,2.42-3.42,3.63-6.85,3.63l-7-.09h-.13V16.44h7.18c3.43,0,5.72,1.21,6.85,3.64s1.7,7.28,1.7,14.58S118.36,46.82,117.23,49.24Z"/></g></g></svg>