<?xml version="1.0" encoding="utf-8"?>
<!-- Generator: Adobe Illustrator 23.0.1, SVG Export Plug-In . SVG Version: 6.00 Build 0)  -->
<svg version="1.1" id="Layer_1" xmlns="http://www.w3.org/2000/svg" xmlns:xlink="http://www.w3.org/1999/xlink" x="0px" y="0px"
	 viewBox="0 0 312.8 214" style="enable-background:new 0 0 312.8 214;" xml:space="preserve">
<style type="text/css">
	.st0{fill:#F17D94;}
	.st1{fill:#E41345;}
	.st2{fill:#870024;}
	.st3{fill:#FFF2F4;}
</style>
<title>Asset 4sadpig</title>
<g>
	<g id="Layer_7">
		<path class="st0" d="M123.4,40c0,0-22.2-57.3-77.8-20.1C24.7,33.8,0,38.8,0,38.8s17.8,61.8,64.6,53.8
			C116.1,83.7,118.9,62.4,123.4,40z"/>
		<path class="st1" d="M99.7,53.2c0.2-0.7,0.1-1.5-0.2-2.1c-2.6-5.4-13.1-25-49.7-9.3c-7.5,3.2-21,11.7-26.9,12.3
			c2.6,9.1,12.3,29.2,39.5,24.5C95.1,72.9,96.7,66.2,99.7,53.2z"/>
		<path class="st2" d="M104.2,52.5l-2,1.3c-0.4-0.7-10-11.8-12.7-11.8c-3.8,0-12.2,5.2-14.9,12.2c-1,2.6-3,1-2.1-1.2
			c2-5.1,6-11,13.8-13c-4.6-1.8-11.2-4.2-15.6-3.1c-2.3,0.6-5.2,5.1-7.1,11.8c-0.2,0.7-1,4.3-2.2,2.6c-1.4-2.1,2.2-12,6-14.1
			c-6.3,1.2-17.2,4.2-24,9.6c-1.1,0.9-2-1.4-0.2-3.2c4.9-4.9,16.6-8.7,26.3-9.6l0,0h0.5c6.7-0.7,13.5,0.7,19.4,4
			C95.3,41.6,100.4,46.5,104.2,52.5z"/>
		<path class="st0" d="M135.4,21c6-4,2-16,2-16s6.8,7.8,11,7c10-2,4-12,4-12s9.8,5.6,15,16c2,4,9-11,9-11s-1,15,8,21
			c5.2,3.5-22,12-22,12l-22-17.7"/>
		<path class="st0" d="M189.4,40c0,0,22.2-57.3,77.8-20.1c20.9,13.9,45.6,18.9,45.6,18.9s-17.8,61.8-64.6,53.8
			C196.7,83.7,193.9,62.4,189.4,40z"/>
		<path class="st1" d="M213.1,53.2c-0.2-0.7-0.1-1.5,0.2-2.1c2.6-5.4,13.1-25,49.7-9.3c7.5,3.2,21,11.7,27,12.3
			c-2.6,9.1-12.3,29.2-39.5,24.5C217.7,72.9,216.1,66.2,213.1,53.2z"/>
		<path class="st2" d="M208.6,52.5l2,1.3c0.4-0.7,10-11.8,12.8-11.8c3.8,0,12.2,5.2,14.9,12.2c1,2.6,3,1,2.1-1.2
			c-2-5.1-6-11-13.8-13c4.6-1.8,11.2-4.2,15.6-3.1c2.2,0.6,5.2,5.1,7.1,11.8c0.2,0.7,1.1,4.3,2.2,2.6c1.4-2.1-2.2-12-5.9-14.1
			c6.3,1.2,17.2,4.2,24,9.6c1.1,0.9,2-1.4,0.2-3.2c-4.9-4.9-16.6-8.7-26.3-9.6l0,0H243c-6.7-0.7-13.5,0.7-19.4,4
			C217.5,41.6,212.4,46.5,208.6,52.5z"/>
		<path class="st0" d="M297.5,154.5c0,32.9-26.6,59.5-59.5,59.5c-8.8,0-18.1-3.4-25.8-6.4c-6.8-2.6-20.2-6.3-34.4-1.7
			c-6.4,2.1-13.1,4-21.4,4.1c-8.3-0.1-15-2-21.4-4.1c-14.1-4.6-27.6-0.9-34.4,1.7c-7.8,3-17,6.4-25.8,6.4
			c-32.9,0-59.5-26.6-59.5-59.5c0-8.6,2.1-16.6,5.5-23.9c3.4-7.3,8.2-13.9,13.6-19.8c9-9.8,31.8-26.6,36.9-35
			c8.5-14.2,17.6-27.7,31.7-39.4C120.4,22,136.4,16.1,156.4,16c20,0.1,36,6,53.4,20.5c14.2,11.7,23.2,25.3,31.8,39.4
			c5.1,8.4,27.9,25.2,36.9,35c5.4,5.9,10.2,12.5,13.6,19.8C295.4,137.9,297.5,145.9,297.5,154.5z"/>
		<path class="st2" d="M139.6,183.9c-0.1,0-12.8-3.2-21.4-4.1c-10.6-1-13,3.3-21.5,3.3c-8.1,0,5.7-3.3,5.7-3.3
			c2.8-2.5,4.3-5,16.2-3.3c7.5,1.2,14.8,3.2,21.9,5.9L139.6,183.9z"/>
		<path class="st2" d="M173.2,183.9c0.1,0,12.8-3.2,21.4-4.1c10.6-1,13,3.3,21.5,3.3c8.1,0-5.7-3.3-5.7-3.3c-2.8-2.5-4.4-5-16.2-3.3
			c-7.5,1.2-14.8,3.2-21.9,5.9L173.2,183.9z"/>
		<path class="st1" d="M194.7,163.7c-4.9,19.1-17.1,28.4-38.3,28.4c-21.2,0-33.4-9.3-38.3-28.4c-5.5-21.4,21.9-42.7,38.3-42.7
			C172.8,121,200.2,142.3,194.7,163.7z"/>
		<path d="M191.4,99.3c1.4,2.4,4.2,4.2,9,5.3c3.2,0.7,6.6,0.7,7-2.1c0.5-3.3-7-2.1-11-5C192.6,94.8,190.4,97.5,191.4,99.3z"/>
		<path class="st2" d="M167.4,156c0,4,4,8,8,8c5,0,8-3,8-7c0-6-5.7-10-9-10C169.4,147,167.4,152,167.4,156z"/>
		<path class="st3" d="M208.9,172.7c-1.2,5.4,0.6,10.9,9.9,13c2.4,0.6,9.2,1.8,13.8,0c6.7-2.6,13.1-8.3,17.1-13.6
			c2.8-3.9,4.6-8.4,5.3-13.2c0.3-2.5-0.8-5.3-3.7-5.9c-3.2-0.7-5.5,1.8-7.2,4.5s-8.3,9.4-20,6.8c-1.9-0.4-4.9-1.1-7-0.6
			C212.8,164.8,210.1,167.3,208.9,172.7z"/>
		<path d="M121.4,99.3c-1.4,2.4-4.2,4.2-9,5.3c-3.2,0.7-6.6,0.7-7-2.1c-0.5-3.3,7-2.1,11-5C120.2,94.8,122.4,97.5,121.4,99.3z"/>
		<path class="st2" d="M145.4,156c0,4-4,8-8,8c-5,0-8-3-8-7c0-6,5.7-10,9-10C143.4,147,145.4,152,145.4,156z"/>
		<path class="st3" d="M103.9,172.7c1.2,5.4-0.6,10.9-9.9,13c-2.4,0.6-9.2,1.8-13.8,0c-6.7-2.6-13.1-8.3-17-13.6
			c-2.8-3.9-4.6-8.4-5.3-13.2c-0.3-2.5,0.8-5.3,3.7-5.9c3.2-0.7,5.5,1.8,7.2,4.5s8.3,9.4,20,6.8c2-0.4,4.9-1.1,7-0.6
			C100,164.8,102.7,167.3,103.9,172.7z"/>
	</g>
</g>
</svg>
