<?xml version="1.0" encoding="utf-8"?>
<!-- Generator: Adobe Illustrator 23.0.1, SVG Export Plug-In . SVG Version: 6.00 Build 0)  -->
<svg version="1.1" id="Layer_1" xmlns="http://www.w3.org/2000/svg" xmlns:xlink="http://www.w3.org/1999/xlink" x="0px" y="0px"
	 viewBox="0 0 78 71.1" style="enable-background:new 0 0 78 71.1;" xml:space="preserve">
<style type="text/css">
	.st0{fill:#E41345;}
	.st1{fill:#870024;}
</style>
<title>Asset 6snoot</title>
<g>
	<g id="Layer_6">
		<path class="st0" d="M77.3,42.7C72.4,61.8,60.2,71.1,39,71.1S5.6,61.8,0.7,42.7C-4.8,21.3,22.6,0,39,0S82.8,21.3,77.3,42.7z"/>
		<path class="st1" d="M50,35c0,4,4,8,8,8c5,0,8-3,8-7c0-6-5.7-10-9-10C52,26,50,31,50,35z"/>
		<path class="st1" d="M28,35c0,4-4,8-8,8c-5,0-8-3-8-7c0-6,5.7-10,9-10C26,26,28,31,28,35z"/>
	</g>
</g>
</svg>
