<svg width="96px" height="47px" viewBox="0 0 96 47" version="1.1" xmlns="http://www.w3.org/2000/svg" xmlns:xlink="http://www.w3.org/1999/xlink">
<path d="M0,4.03149085 C0,1.60650085 2.12948,-0.267706151 4.53595,0.0314298491 C13.4725,1.14228085 33.726,3.44600085 48,3.44600085 C62.274,3.44600085 82.5275,1.14228085 91.464,0.0314308491 C93.8705,-0.267706151 96,1.60650085 96,4.03149085 L96,42.8605008 C96,45.2855008 93.8705,47.1597008 91.4641,46.8606008 C82.5275,45.7497008 62.274,43.4460008 48,43.4460008 C33.726,43.4460008 13.4725,45.7497008 4.53595,46.8606008 C2.12948,47.1597008 0,45.2855008 0,42.8605008 L0,4.03149085 Z" id="Path-Copy-3" fill="#E41345"></path>
<path d="M0,39 C0,41.425 2.12948,43.2992 4.53595,43.0001 C13.4725,41.8892 33.726,39.5855 48,39.5855 C62.274,39.5855 82.5275,41.8892 91.4641,43.0001 C93.8705,43.2992 96,41.425 96,39 L96,39 L96,43 C96,45.425 93.8705,47.2992 91.4641,47.0001 C82.5275,45.8892 62.274,43.5855 48,43.5855 C33.726,43.5855 13.4725,45.8892 4.53595,47.0001 C2.12948,47.2992 0,45.425 0,43 Z" id="Combined-Shape" fill="#870024"></path>
</svg>
